max v2;#N vpatcher 386 102 980 554;#P window setfont "Sans Serif" 9.;#N thispatcher;#Q end;#P hidden newobj 38 31 61 196617 thispatcher;#P hidden newex 23 83 38 196617 sel 32;#P hidden newex 23 57 43 196617 key;#P hidden newex 23 211 41 196617 sel 1 0;#P toggle 23 123 73 0;#P hidden message 38 268 29 196617 stop;#P hidden message 23 251 67 196617 startwindow;#P hidden newex 146 306 31 196617 dac~;#P hidden newex 146 40 31 196617 adc~;#P hidden newex 384 39 94 196617 bgcolor 0 250 250;#P comment 301 312 166 196617 Alexander Refsum Jensenius 2008;#P window setfont "Sans Serif" 14.;#P window linecount 5;#P user com 364 102 140 196622 18;#K set 0 18798 29556 29301 27507 27247 28261 29242 3341 29552 24931 25888 25185 29216 15648 28812 12129 30221 3328;#K end;#P window setfont "Arial Black" 18.;#P window linecount 1;#P comment 301 285 172 791478290 Clap Hands;#P button 84 375 25 0;#P user multiSlider 108 375 349 25 1. 5. 1 2936 15 0 0 2 0 0 0;#M frgb 214 0 0;#M brgb 255 255 255;#M rgb2 127 127 127;#M rgb3 0 0 0;#M rgb4 37 52 91;#M rgb5 74 105 182;#M rgb6 112 158 18;#M rgb7 149 211 110;#M rgb8 187 9 201;#M rgb9 224 62 37;#M rgb10 7 114 128;#P window setfont "Sans Serif" 9.;#P hidden newex 239 230 48 196617 loadbang;#P hidden message 239 253 26 196617 127;#P window setfont "Sans Serif" 36.;#P number 258 143 59 36 0 0 8352 3 0 0 0 221 221 221 222 222 222 0 0 0;#P user meter~ 186 89 208 160 50 0 168 0 103 103 103 255 153 0 255 0 0 217 217 0 153 186 0 12 3 3 3 3;#P user gain~ 167 89 20 49 158 0 1.071519 7.94321 10.;#P window setfont "Sans Serif" 9.;#N vpatcher 67 204 1255 625;#P origin 78 -18;#P window setfont "Sans Serif" 9.;#P window linecount 1;#P newex 923 100 30 196617 - 48;#P inlet 1059 35 15 0;#P outlet 1085 319 15 0;#P message 1059 103 68 196617 1 \, 5 300000;#P number 607 172 35 9 0 0 1 3 0 0 0 221 221 221 222 222 222 0 0 0;#P objectname delay[2];#P newex 592 206 63 196617 tapout~ 100;#B color 10;#P number 714 172 35 9 0 0 1 3 0 0 0 221 221 221 222 222 222 0 0 0;#P objectname delay[5];#P newex 688 206 65 196617 tapout~ 100;#P number 433 172 35 9 0 0 1 3 0 0 0 221 221 221 222 222 222 0 0 0;#P objectname delay[6];#P newex 418 206 63 196617 tapout~ 100;#B color 10;#P number 540 172 35 9 0 0 1 3 0 0 0 221 221 221 222 222 222 0 0 0;#P objectname delay[7];#P newex 514 206 65 196617 tapout~ 100;#P number 224 172 35 9 0 0 1 3 0 0 0 221 221 221 222 222 222 0 0 0;#P objectname delay[4];#P newex 209 206 63 196617 tapout~ 100;#B color 10;#P number 331 172 35 9 0 0 1 3 0 0 0 221 221 221 222 222 222 0 0 0;#P objectname delay[1];#P newex 305 206 65 196617 tapout~ 100;#P number 50 172 35 9 0 0 1 3 0 0 0 221 221 221 222 222 222 0 0 0;#P objectname delay[3];#P newex 35 206 63 196617 tapout~ 100;#B color 10;#P newex 35 122 65 196617 tapin~ 2000;#B color 5;#P number 157 172 35 9 0 0 1 3 0 0 0 221 221 221 222 222 222 0 0 0;#P objectname delay;#P newex 131 206 65 196617 tapout~ 100;#P window linecount 0;#P newex 1059 124 40 196617 line 0.;#P button 1007 210 14 0;#P newex 1007 231 27 196617 int;#P outlet 792 323 15 0;#P message 872 246 30 196617 read;#P message 838 246 35 196617 write;#P toggle 923 59 15 0;#P newex 923 35 38 196617 sel 32;#P newex 923 79 29 196617 gate;#P newex 923 122 44 196617 clip 1 0;#P newex 923 9 43 196617 key;#P window setfont "Sans Serif" 18.;#P flonum 923 188 83 18 0. 0 1 3 0 0 0 221 221 221 222 222 222 0 0 0;#P window setfont "Sans Serif" 9.;#P number 1024 208 35 9 0 0 0 3 0 0 0 221 221 221 222 222 222 0 0 0;#P message 1007 253 49 196617 store \$1;#P newex 923 277 118 196617 pattrstorage clap-hands;#X autorestore clap-hands.xml;#X client_rect 0 0 640 240;#X storage_rect 0 0 640 240;#P objectname clap-hands;#P newex 1218 276 53 196617 autopattr;#X prestore delay 1 0 778;#X prestore delay[1] 1 0 1147;#X prestore delay[2] 1 0 973;#X prestore delay[3] 1 0 373;#X prestore delay[4] 1 0 947;#X prestore delay[5] 1 0 1173;#X prestore delay[6] 1 0 426;#X prestore delay[7] 1 0 837;#P objectname u604000005;#P inlet 35 29 15 0;#P outlet 688 356 15 0;#P outlet 35 356 15 0;#P connect 2 0 21 0;#P connect 21 0 22 0;#P connect 23 0 22 0;#P fasten 19 0 0 0 136 279 40 279;#P connect 22 0 0 0;#P fasten 24 0 0 0 310 279 40 279;#P fasten 26 0 0 0 214 279 40 279;#P connect 20 0 19 0;#P fasten 21 0 19 0 40 197 136 197;#P connect 27 0 26 0;#P fasten 21 0 26 0 40 197 214 197;#P connect 25 0 24 0;#P fasten 21 0 24 0 40 197 310 197;#P connect 31 0 30 0;#P fasten 21 0 30 0 40 197 423 197;#P connect 29 0 28 0;#P fasten 21 0 28 0 40 197 519 197;#P connect 35 0 34 0;#P fasten 21 0 34 0 40 197 597 197;#P connect 33 0 32 0;#P fasten 21 0 32 0 40 197 693 197;#P fasten 30 0 1 0 423 292 693 292;#P fasten 28 0 1 0 519 292 693 292;#P fasten 34 0 1 0 597 292 693 292;#P connect 32 0 1 0;#P fasten 9 0 15 0 928 140 797 140;#P connect 8 0 11 0;#P connect 11 0 12 0;#P connect 12 0 10 0;#P connect 10 0 39 0;#P connect 39 0 9 0;#P fasten 18 0 7 0 1064 164 928 164;#P connect 9 0 7 0;#P connect 7 0 4 0;#P fasten 5 0 4 0 1012 272 928 272;#P fasten 13 0 4 0 843 269 928 269;#P fasten 14 0 4 0 877 268 928 268;#P fasten 8 0 10 1 928 29 947 29;#P connect 17 0 16 0;#P connect 16 0 5 0;#P connect 6 0 16 1;#P connect 38 0 36 0;#P connect 36 0 18 0;#P fasten 18 0 37 0 1064 182 1090 182;#P pop;#P newobj 146 175 66 196617 p clap-hands;#P objectname munging;#P user meter~ 205 214 227 285 50 0 168 0 103 103 103 255 153 0 255 0 0 217 217 0 153 186 0 12 3 3 3 3;#P user gain~ 186 214 20 49 158 0 1.071519 7.94321 10.;#P user gain~ 146 214 20 49 158 0 1.071519 7.94321 10.;#P user meter~ 165 214 187 285 50 0 168 0 103 103 103 255 153 0 255 0 0 217 217 0 153 186 0 12 3 3 3 3;#P user meter~ 146 89 168 160 50 0 168 0 103 103 103 255 153 0 255 0 0 217 217 0 153 186 0 12 3 3 3 3;#P user panel 244 131 85 75;#X brgb 19 182 0;#X frgb 0 0 0;#X border 1;#X rounded 0;#X shadow 0;#X done;#P user panel 135 85 97 83;#X brgb 19 182 0;#X frgb 0 0 0;#X border 1;#X rounded 0;#X shadow 0;#X done;#P comment 209 73 21 196617 inn;#P comment 214 196 21 196617 ut;#P user panel 135 209 97 83;#X brgb 19 182 0;#X frgb 0 0 0;#X border 1;#X rounded 0;#X shadow 0;#X done;#P hidden connect 28 0 29 0;#P hidden connect 29 0 26 0;#P hidden connect 26 0 27 0;#P hidden connect 27 0 24 0;#P hidden connect 27 1 25 0;#P hidden connect 10 3 16 0;#P hidden connect 22 1 5 0;#P hidden connect 22 0 5 0;#P fasten 11 0 10 0 172 167 151 167;#P hidden fasten 10 0 7 0 151 203 151 203;#P hidden connect 14 0 7 0;#P hidden connect 24 0 23 0;#P hidden connect 25 0 23 0;#P hidden connect 7 0 23 0;#P hidden fasten 10 0 6 0 151 203 170 203;#P hidden connect 22 0 11 0;#P hidden connect 22 1 11 0;#P hidden connect 8 0 23 1;#P hidden connect 11 0 12 0;#P hidden fasten 10 1 8 0 169 203 191 203;#P hidden connect 7 1 8 0;#P hidden connect 17 0 10 1;#P hidden fasten 10 1 9 0 169 203 210 203;#P hidden connect 15 0 14 0;#P hidden connect 10 2 13 0;#P pop;