{
	"patcher" : 	{
		"fileversion" : 1,
		"rect" : [ 768.0, 378.0, 236.0, 199.0 ],
		"bglocked" : 0,
		"defrect" : [ 768.0, 378.0, 236.0, 199.0 ],
		"openrect" : [ 0.0, 0.0, 0.0, 0.0 ],
		"openinpresentation" : 1,
		"default_fontsize" : 12.0,
		"default_fontface" : 0,
		"default_fontname" : "Arial",
		"gridonopen" : 0,
		"gridsize" : [ 15.0, 15.0 ],
		"gridsnaponopen" : 0,
		"toolbarvisible" : 1,
		"boxanimatetime" : 200,
		"imprint" : 0,
		"metadata" : [  ],
		"boxes" : [ 			{
				"box" : 				{
					"maxclass" : "comment",
					"text" : " on/off",
					"numoutlets" : 0,
					"patching_rect" : [ 244.0, 331.0, 93.0, 27.0 ],
					"id" : "obj-33",
					"presentation" : 1,
					"fontsize" : 18.0,
					"presentation_rect" : [ 55.0, 53.0, 62.0, 27.0 ],
					"numinlets" : 1,
					"fontname" : "Arial"
				}

			}
, 			{
				"box" : 				{
					"maxclass" : "hint",
					"hint" : "Set hint text with the 'set' message",
					"numoutlets" : 0,
					"patching_rect" : [ 441.0, 575.0, 100.0, 20.0 ],
					"id" : "obj-37",
					"numinlets" : 1
				}

			}
, 			{
				"box" : 				{
					"maxclass" : "textbutton",
					"numoutlets" : 3,
					"patching_rect" : [ 19.0, 104.0, 120.049789, 17.349121 ],
					"id" : "obj-36",
					"presentation" : 1,
					"text" : "message to the players",
					"outlettype" : [ "", "", "int" ],
					"fontsize" : 9.0,
					"bgovercolor" : [ 0.694118, 0.694118, 0.694118, 1.0 ],
					"presentation_rect" : [ 14.0, 97.0, 116.049789, 18.349121 ],
					"bgcolor" : [ 0.921569, 0.941176, 0.670588, 1.0 ],
					"numinlets" : 1,
					"fontname" : "Arial"
				}

			}
, 			{
				"box" : 				{
					"maxclass" : "textedit",
					"text" : "\n\n\n\n\n\n\nhello\n",
					"linecount" : 8,
					"presentation_linecount" : 8,
					"numoutlets" : 4,
					"patching_rect" : [ 18.0, 121.0, 119.0, 50.0 ],
					"id" : "obj-27",
					"presentation" : 1,
					"outlettype" : [ "", "int", "", "" ],
					"fontsize" : 12.0,
					"presentation_rect" : [ 12.0, 114.0, 119.0, 50.0 ],
					"outputmode" : 1,
					"bgcolor" : [ 0.917647, 0.937255, 0.670588, 1.0 ],
					"numinlets" : 1,
					"fontname" : "Arial"
				}

			}
, 			{
				"box" : 				{
					"maxclass" : "umenu",
					"numoutlets" : 3,
					"patching_rect" : [ 29.0, 171.0, 108.0, 20.0 ],
					"id" : "obj-24",
					"presentation" : 1,
					"outlettype" : [ "int", "", "" ],
					"fontsize" : 12.0,
					"types" : [  ],
					"items" : [ "start", ",", "section1", ",", "section2", ",", "section3", ",", "section4", ",", "section5", ",", "to", "external", "metro", ",", "to", "internal", "metro", ",", "quick", "fade", "out", ",", "slow", "fade", "out", ",", "stop", "on", "cue" ],
					"presentation_rect" : [ 12.0, 162.0, 119.0, 20.0 ],
					"bgcolor" : [ 0.917647, 0.937255, 0.670588, 1.0 ],
					"numinlets" : 1,
					"fontname" : "Arial"
				}

			}
, 			{
				"box" : 				{
					"maxclass" : "newobj",
					"text" : "prepend text",
					"numoutlets" : 1,
					"patching_rect" : [ 74.0, 481.0, 77.0, 20.0 ],
					"id" : "obj-12",
					"outlettype" : [ "" ],
					"fontsize" : 12.0,
					"numinlets" : 1,
					"fontname" : "Arial"
				}

			}
, 			{
				"box" : 				{
					"maxclass" : "number",
					"numoutlets" : 2,
					"patching_rect" : [ 218.0, 437.0, 35.0, 20.0 ],
					"id" : "obj-42",
					"outlettype" : [ "int", "bang" ],
					"cantchange" : 1,
					"fontsize" : 12.0,
					"numinlets" : 1,
					"fontname" : "Arial",
					"triangle" : 0
				}

			}
, 			{
				"box" : 				{
					"maxclass" : "comment",
					"text" : "conductor ",
					"numoutlets" : 0,
					"patching_rect" : [ 142.0, 92.0, 93.0, 27.0 ],
					"id" : "obj-41",
					"presentation" : 1,
					"fontsize" : 18.0,
					"presentation_rect" : [ 18.0, 17.0, 93.0, 27.0 ],
					"numinlets" : 1,
					"fontname" : "Arial"
				}

			}
, 			{
				"box" : 				{
					"maxclass" : "comment",
					"text" : "event#",
					"numoutlets" : 0,
					"patching_rect" : [ 181.0, 481.0, 48.0, 20.0 ],
					"id" : "obj-40",
					"fontsize" : 12.0,
					"numinlets" : 1,
					"fontname" : "Arial"
				}

			}
, 			{
				"box" : 				{
					"maxclass" : "comment",
					"text" : "pulse-delay in msecs",
					"linecount" : 2,
					"numoutlets" : 0,
					"patching_rect" : [ 208.0, 335.0, 73.0, 34.0 ],
					"id" : "obj-39",
					"fontsize" : 12.0,
					"numinlets" : 1,
					"fontname" : "Arial"
				}

			}
, 			{
				"box" : 				{
					"maxclass" : "newobj",
					"text" : "- 25",
					"numoutlets" : 1,
					"patching_rect" : [ 297.0, 432.0, 32.5, 20.0 ],
					"id" : "obj-35",
					"outlettype" : [ "int" ],
					"fontsize" : 12.0,
					"numinlets" : 2,
					"fontname" : "Arial"
				}

			}
, 			{
				"box" : 				{
					"maxclass" : "newobj",
					"text" : "!/ 60000",
					"numoutlets" : 1,
					"patching_rect" : [ 297.0, 406.0, 54.0, 20.0 ],
					"id" : "obj-25",
					"outlettype" : [ "int" ],
					"fontsize" : 12.0,
					"numinlets" : 2,
					"fontname" : "Arial"
				}

			}
, 			{
				"box" : 				{
					"maxclass" : "newobj",
					"text" : "* 4",
					"numoutlets" : 1,
					"patching_rect" : [ 297.0, 380.0, 32.5, 20.0 ],
					"id" : "obj-26",
					"outlettype" : [ "int" ],
					"fontsize" : 12.0,
					"numinlets" : 2,
					"fontname" : "Arial"
				}

			}
, 			{
				"box" : 				{
					"maxclass" : "comment",
					"text" : "< 360 bpm",
					"numoutlets" : 0,
					"patching_rect" : [ 328.0, 128.0, 70.0, 20.0 ],
					"id" : "obj-23",
					"presentation" : 1,
					"fontsize" : 12.0,
					"presentation_rect" : [ 159.0, 52.0, 70.0, 20.0 ],
					"numinlets" : 1,
					"fontname" : "Arial"
				}

			}
, 			{
				"box" : 				{
					"maxclass" : "newobj",
					"text" : "- 37",
					"numoutlets" : 1,
					"patching_rect" : [ 313.0, 319.0, 32.5, 20.0 ],
					"id" : "obj-22",
					"outlettype" : [ "int" ],
					"fontsize" : 12.0,
					"numinlets" : 2,
					"fontname" : "Arial"
				}

			}
, 			{
				"box" : 				{
					"maxclass" : "message",
					"text" : "$1 1500",
					"numoutlets" : 1,
					"patching_rect" : [ 196.0, 383.0, 54.0, 18.0 ],
					"id" : "obj-21",
					"outlettype" : [ "" ],
					"fontsize" : 12.0,
					"numinlets" : 2,
					"fontname" : "Arial"
				}

			}
, 			{
				"box" : 				{
					"maxclass" : "newobj",
					"text" : "line 82 20",
					"numoutlets" : 3,
					"patching_rect" : [ 196.0, 408.0, 63.0, 20.0 ],
					"id" : "obj-20",
					"outlettype" : [ "", "", "" ],
					"fontsize" : 12.0,
					"numinlets" : 3,
					"fontname" : "Arial"
				}

			}
, 			{
				"box" : 				{
					"maxclass" : "comment",
					"text" : "< 300 bpm",
					"numoutlets" : 0,
					"patching_rect" : [ 328.0, 149.0, 70.0, 20.0 ],
					"id" : "obj-19",
					"presentation" : 1,
					"fontsize" : 12.0,
					"presentation_rect" : [ 159.0, 73.0, 70.0, 20.0 ],
					"numinlets" : 1,
					"fontname" : "Arial"
				}

			}
, 			{
				"box" : 				{
					"maxclass" : "comment",
					"text" : "< 240 bpm",
					"numoutlets" : 0,
					"patching_rect" : [ 328.0, 170.0, 70.0, 20.0 ],
					"id" : "obj-18",
					"presentation" : 1,
					"fontsize" : 12.0,
					"presentation_rect" : [ 159.0, 94.0, 70.0, 20.0 ],
					"numinlets" : 1,
					"fontname" : "Arial"
				}

			}
, 			{
				"box" : 				{
					"maxclass" : "comment",
					"text" : "< 180 bpm",
					"numoutlets" : 0,
					"patching_rect" : [ 328.0, 191.0, 70.0, 20.0 ],
					"id" : "obj-17",
					"presentation" : 1,
					"fontsize" : 12.0,
					"presentation_rect" : [ 159.0, 115.0, 70.0, 20.0 ],
					"numinlets" : 1,
					"fontname" : "Arial"
				}

			}
, 			{
				"box" : 				{
					"maxclass" : "comment",
					"text" : "< 120 bpm",
					"numoutlets" : 0,
					"patching_rect" : [ 328.0, 212.0, 70.0, 20.0 ],
					"id" : "obj-16",
					"presentation" : 1,
					"fontsize" : 12.0,
					"presentation_rect" : [ 159.0, 136.0, 70.0, 20.0 ],
					"numinlets" : 1,
					"fontname" : "Arial"
				}

			}
, 			{
				"box" : 				{
					"maxclass" : "comment",
					"text" : "< 60 bpm",
					"numoutlets" : 0,
					"patching_rect" : [ 328.0, 233.0, 62.0, 20.0 ],
					"id" : "obj-15",
					"presentation" : 1,
					"fontsize" : 12.0,
					"presentation_rect" : [ 159.0, 157.0, 62.0, 20.0 ],
					"numinlets" : 1,
					"fontname" : "Arial"
				}

			}
, 			{
				"box" : 				{
					"maxclass" : "number",
					"numoutlets" : 2,
					"patching_rect" : [ 346.0, 265.0, 31.0, 20.0 ],
					"id" : "obj-14",
					"outlettype" : [ "int", "bang" ],
					"cantchange" : 1,
					"fontsize" : 12.0,
					"numinlets" : 1,
					"fontname" : "Arial",
					"triangle" : 0
				}

			}
, 			{
				"box" : 				{
					"maxclass" : "comment",
					"text" : "M.M. 1/4-note .........marking",
					"linecount" : 2,
					"presentation_linecount" : 2,
					"numoutlets" : 0,
					"patching_rect" : [ 312.0, 85.0, 86.0, 34.0 ],
					"id" : "obj-13",
					"presentation" : 1,
					"fontsize" : 12.0,
					"presentation_rect" : [ 143.0, 9.0, 86.0, 34.0 ],
					"numinlets" : 1,
					"fontname" : "Arial"
				}

			}
, 			{
				"box" : 				{
					"maxclass" : "newobj",
					"text" : "!/ 60000",
					"numoutlets" : 1,
					"patching_rect" : [ 313.0, 293.0, 54.0, 20.0 ],
					"id" : "obj-11",
					"outlettype" : [ "int" ],
					"fontsize" : 12.0,
					"numinlets" : 2,
					"fontname" : "Arial"
				}

			}
, 			{
				"box" : 				{
					"maxclass" : "newobj",
					"text" : "* 4",
					"numoutlets" : 1,
					"patching_rect" : [ 313.0, 265.0, 32.5, 20.0 ],
					"id" : "obj-9",
					"outlettype" : [ "int" ],
					"fontsize" : 12.0,
					"numinlets" : 2,
					"fontname" : "Arial"
				}

			}
, 			{
				"box" : 				{
					"maxclass" : "slider",
					"numoutlets" : 1,
					"patching_rect" : [ 313.0, 120.0, 20.0, 140.0 ],
					"id" : "obj-8",
					"presentation" : 1,
					"knobcolor" : [ 0.898039, 0.2, 0.2, 1.0 ],
					"outlettype" : [ "" ],
					"size" : 376.0,
					"presentation_rect" : [ 144.0, 44.0, 20.0, 140.0 ],
					"min" : 25.0,
					"bgcolor" : [ 0.917647, 0.937255, 0.670588, 1.0 ],
					"numinlets" : 1
				}

			}
, 			{
				"box" : 				{
					"maxclass" : "newobj",
					"text" : "prepend pdelay",
					"numoutlets" : 1,
					"patching_rect" : [ 270.0, 463.0, 93.0, 20.0 ],
					"id" : "obj-6",
					"outlettype" : [ "" ],
					"fontsize" : 12.0,
					"numinlets" : 1,
					"fontname" : "Arial"
				}

			}
, 			{
				"box" : 				{
					"maxclass" : "newobj",
					"text" : "loadmess 155",
					"numoutlets" : 1,
					"patching_rect" : [ 313.0, 58.0, 85.0, 20.0 ],
					"id" : "obj-4",
					"outlettype" : [ "" ],
					"fontsize" : 12.0,
					"hidden" : 1,
					"numinlets" : 1,
					"fontname" : "Arial"
				}

			}
, 			{
				"box" : 				{
					"maxclass" : "message",
					"text" : "set $1",
					"numoutlets" : 1,
					"patching_rect" : [ 266.0, 88.0, 43.0, 18.0 ],
					"id" : "obj-5",
					"outlettype" : [ "" ],
					"fontsize" : 12.0,
					"numinlets" : 2,
					"fontname" : "Arial"
				}

			}
, 			{
				"box" : 				{
					"maxclass" : "slider",
					"numoutlets" : 1,
					"patching_rect" : [ 270.0, 120.0, 20.0, 140.0 ],
					"id" : "obj-2",
					"outlettype" : [ "" ],
					"size" : 564.0,
					"min" : 37.0,
					"numinlets" : 1
				}

			}
, 			{
				"box" : 				{
					"maxclass" : "newobj",
					"text" : "split 37 600",
					"numoutlets" : 2,
					"patching_rect" : [ 187.0, 294.0, 72.0, 20.0 ],
					"id" : "obj-31",
					"outlettype" : [ "int", "int" ],
					"fontsize" : 12.0,
					"numinlets" : 3,
					"fontname" : "Arial"
				}

			}
, 			{
				"box" : 				{
					"maxclass" : "number",
					"numoutlets" : 2,
					"patching_rect" : [ 270.0, 350.0, 35.0, 20.0 ],
					"id" : "obj-30",
					"outlettype" : [ "int", "bang" ],
					"cantchange" : 1,
					"fontsize" : 12.0,
					"numinlets" : 1,
					"fontname" : "Arial",
					"triangle" : 0
				}

			}
, 			{
				"box" : 				{
					"maxclass" : "newobj",
					"text" : "timer",
					"numoutlets" : 2,
					"patching_rect" : [ 187.0, 265.0, 37.0, 20.0 ],
					"id" : "obj-29",
					"outlettype" : [ "float", "" ],
					"fontsize" : 12.0,
					"numinlets" : 2,
					"fontname" : "Arial"
				}

			}
, 			{
				"box" : 				{
					"maxclass" : "newobj",
					"text" : "sel 32",
					"numoutlets" : 2,
					"patching_rect" : [ 196.0, 226.0, 43.0, 20.0 ],
					"id" : "obj-28",
					"outlettype" : [ "bang", "" ],
					"fontsize" : 12.0,
					"numinlets" : 2,
					"fontname" : "Arial"
				}

			}
, 			{
				"box" : 				{
					"maxclass" : "toggle",
					"numoutlets" : 1,
					"patching_rect" : [ 196.0, 118.0, 43.0, 43.0 ],
					"id" : "obj-3",
					"presentation" : 1,
					"outlettype" : [ "int" ],
					"checkedcolor" : [ 0.898039, 0.0, 0.0, 1.0 ],
					"presentation_rect" : [ 13.0, 45.0, 43.0, 43.0 ],
					"bgcolor" : [ 0.917647, 0.937255, 0.670588, 1.0 ],
					"numinlets" : 1
				}

			}
, 			{
				"box" : 				{
					"maxclass" : "newobj",
					"text" : "gate",
					"numoutlets" : 1,
					"patching_rect" : [ 196.0, 204.0, 29.0, 17.0 ],
					"id" : "obj-7",
					"outlettype" : [ "" ],
					"fontsize" : 9.0,
					"numinlets" : 2,
					"fontname" : "Arial"
				}

			}
, 			{
				"box" : 				{
					"maxclass" : "newobj",
					"text" : "key",
					"numoutlets" : 4,
					"patching_rect" : [ 206.0, 181.0, 40.0, 17.0 ],
					"id" : "obj-10",
					"outlettype" : [ "int", "int", "int", "int" ],
					"fontsize" : 9.0,
					"numinlets" : 0,
					"fontname" : "Arial"
				}

			}
, 			{
				"box" : 				{
					"maxclass" : "newobj",
					"text" : "metro 82",
					"numoutlets" : 1,
					"patching_rect" : [ 169.0, 438.0, 46.0, 17.0 ],
					"id" : "obj-92",
					"outlettype" : [ "bang" ],
					"fontsize" : 9.0,
					"numinlets" : 2,
					"fontname" : "Arial"
				}

			}
, 			{
				"box" : 				{
					"maxclass" : "newobj",
					"text" : "counter 0 0 4619",
					"numoutlets" : 4,
					"patching_rect" : [ 169.0, 462.0, 89.0, 17.0 ],
					"id" : "obj-94",
					"outlettype" : [ "int", "", "", "int" ],
					"fontsize" : 9.0,
					"numinlets" : 5,
					"fontname" : "Arial"
				}

			}
, 			{
				"box" : 				{
					"maxclass" : "newobj",
					"text" : "mxj net.maxhole",
					"numoutlets" : 1,
					"patching_rect" : [ 169.0, 510.0, 98.0, 20.0 ],
					"id" : "obj-1",
					"outlettype" : [ "" ],
					"fontsize" : 12.0,
					"numinlets" : 1,
					"fontname" : "Arial"
				}

			}
, 			{
				"box" : 				{
					"maxclass" : "panel",
					"numoutlets" : 0,
					"patching_rect" : [ 15.0, 91.0, 128.0, 128.0 ],
					"id" : "obj-32",
					"presentation" : 1,
					"presentation_rect" : [ 1.0, 2.0, 233.0, 195.0 ],
					"numinlets" : 1
				}

			}
 ],
		"lines" : [ 			{
				"patchline" : 				{
					"source" : [ "obj-36", 0 ],
					"destination" : [ "obj-27", 0 ],
					"hidden" : 1,
					"midpoints" : [  ]
				}

			}
, 			{
				"patchline" : 				{
					"source" : [ "obj-27", 0 ],
					"destination" : [ "obj-1", 0 ],
					"hidden" : 0,
					"midpoints" : [ 27.5, 504.0, 178.5, 504.0 ]
				}

			}
, 			{
				"patchline" : 				{
					"source" : [ "obj-20", 0 ],
					"destination" : [ "obj-42", 0 ],
					"hidden" : 0,
					"midpoints" : [ 205.5, 432.0, 227.5, 432.0 ]
				}

			}
, 			{
				"patchline" : 				{
					"source" : [ "obj-31", 0 ],
					"destination" : [ "obj-2", 0 ],
					"hidden" : 0,
					"midpoints" : [ 196.5, 320.0, 264.0, 320.0, 264.0, 116.0, 279.5, 116.0 ]
				}

			}
, 			{
				"patchline" : 				{
					"source" : [ "obj-30", 0 ],
					"destination" : [ "obj-26", 0 ],
					"hidden" : 0,
					"midpoints" : [ 279.5, 375.0, 306.5, 375.0 ]
				}

			}
, 			{
				"patchline" : 				{
					"source" : [ "obj-35", 0 ],
					"destination" : [ "obj-5", 0 ],
					"hidden" : 0,
					"midpoints" : [ 306.5, 458.0, 397.0, 458.0, 397.0, 85.0, 275.5, 85.0 ]
				}

			}
, 			{
				"patchline" : 				{
					"source" : [ "obj-5", 0 ],
					"destination" : [ "obj-8", 0 ],
					"hidden" : 0,
					"midpoints" : [ 275.5, 111.0, 322.5, 111.0 ]
				}

			}
, 			{
				"patchline" : 				{
					"source" : [ "obj-25", 0 ],
					"destination" : [ "obj-35", 0 ],
					"hidden" : 0,
					"midpoints" : [  ]
				}

			}
, 			{
				"patchline" : 				{
					"source" : [ "obj-26", 0 ],
					"destination" : [ "obj-25", 0 ],
					"hidden" : 0,
					"midpoints" : [  ]
				}

			}
, 			{
				"patchline" : 				{
					"source" : [ "obj-4", 0 ],
					"destination" : [ "obj-8", 0 ],
					"hidden" : 1,
					"midpoints" : [  ]
				}

			}
, 			{
				"patchline" : 				{
					"source" : [ "obj-22", 0 ],
					"destination" : [ "obj-2", 0 ],
					"hidden" : 0,
					"midpoints" : [ 322.5, 343.0, 296.0, 343.0, 296.0, 116.0, 279.5, 116.0 ]
				}

			}
, 			{
				"patchline" : 				{
					"source" : [ "obj-30", 0 ],
					"destination" : [ "obj-21", 0 ],
					"hidden" : 0,
					"midpoints" : [ 279.5, 375.0, 205.5, 375.0 ]
				}

			}
, 			{
				"patchline" : 				{
					"source" : [ "obj-20", 0 ],
					"destination" : [ "obj-92", 1 ],
					"hidden" : 0,
					"midpoints" : [  ]
				}

			}
, 			{
				"patchline" : 				{
					"source" : [ "obj-3", 0 ],
					"destination" : [ "obj-92", 0 ],
					"hidden" : 0,
					"midpoints" : [ 205.5, 174.0, 178.5, 174.0 ]
				}

			}
, 			{
				"patchline" : 				{
					"source" : [ "obj-92", 0 ],
					"destination" : [ "obj-94", 0 ],
					"hidden" : 0,
					"midpoints" : [  ]
				}

			}
, 			{
				"patchline" : 				{
					"source" : [ "obj-21", 0 ],
					"destination" : [ "obj-20", 0 ],
					"hidden" : 0,
					"midpoints" : [  ]
				}

			}
, 			{
				"patchline" : 				{
					"source" : [ "obj-11", 0 ],
					"destination" : [ "obj-22", 0 ],
					"hidden" : 0,
					"midpoints" : [  ]
				}

			}
, 			{
				"patchline" : 				{
					"source" : [ "obj-29", 0 ],
					"destination" : [ "obj-31", 0 ],
					"hidden" : 0,
					"midpoints" : [  ]
				}

			}
, 			{
				"patchline" : 				{
					"source" : [ "obj-8", 0 ],
					"destination" : [ "obj-14", 0 ],
					"hidden" : 1,
					"midpoints" : [  ]
				}

			}
, 			{
				"patchline" : 				{
					"source" : [ "obj-9", 0 ],
					"destination" : [ "obj-11", 0 ],
					"hidden" : 0,
					"midpoints" : [  ]
				}

			}
, 			{
				"patchline" : 				{
					"source" : [ "obj-8", 0 ],
					"destination" : [ "obj-9", 0 ],
					"hidden" : 0,
					"midpoints" : [  ]
				}

			}
, 			{
				"patchline" : 				{
					"source" : [ "obj-6", 0 ],
					"destination" : [ "obj-1", 0 ],
					"hidden" : 0,
					"midpoints" : [ 279.5, 504.0, 178.5, 504.0 ]
				}

			}
, 			{
				"patchline" : 				{
					"source" : [ "obj-30", 0 ],
					"destination" : [ "obj-6", 0 ],
					"hidden" : 0,
					"midpoints" : [  ]
				}

			}
, 			{
				"patchline" : 				{
					"source" : [ "obj-2", 0 ],
					"destination" : [ "obj-30", 0 ],
					"hidden" : 0,
					"midpoints" : [  ]
				}

			}
, 			{
				"patchline" : 				{
					"source" : [ "obj-10", 0 ],
					"destination" : [ "obj-7", 1 ],
					"hidden" : 0,
					"midpoints" : [  ]
				}

			}
, 			{
				"patchline" : 				{
					"source" : [ "obj-3", 0 ],
					"destination" : [ "obj-7", 0 ],
					"hidden" : 0,
					"midpoints" : [  ]
				}

			}
, 			{
				"patchline" : 				{
					"source" : [ "obj-7", 0 ],
					"destination" : [ "obj-28", 0 ],
					"hidden" : 0,
					"midpoints" : [ 205.5, 226.0, 205.5, 226.0 ]
				}

			}
, 			{
				"patchline" : 				{
					"source" : [ "obj-28", 0 ],
					"destination" : [ "obj-29", 1 ],
					"hidden" : 0,
					"midpoints" : [  ]
				}

			}
, 			{
				"patchline" : 				{
					"source" : [ "obj-28", 0 ],
					"destination" : [ "obj-29", 0 ],
					"hidden" : 0,
					"midpoints" : [  ]
				}

			}
, 			{
				"patchline" : 				{
					"source" : [ "obj-94", 0 ],
					"destination" : [ "obj-1", 0 ],
					"hidden" : 0,
					"midpoints" : [  ]
				}

			}
, 			{
				"patchline" : 				{
					"source" : [ "obj-12", 0 ],
					"destination" : [ "obj-1", 0 ],
					"hidden" : 0,
					"midpoints" : [ 83.5, 504.0, 178.5, 504.0 ]
				}

			}
, 			{
				"patchline" : 				{
					"source" : [ "obj-24", 1 ],
					"destination" : [ "obj-12", 0 ],
					"hidden" : 0,
					"midpoints" : [  ]
				}

			}
 ]
	}

}
