{
	"patcher" : 	{
		"fileversion" : 1,
		"rect" : [ 25.0, 69.0, 836.0, 540.0 ],
		"bglocked" : 0,
		"defrect" : [ 25.0, 69.0, 836.0, 540.0 ],
		"openrect" : [ 0.0, 0.0, 0.0, 0.0 ],
		"openinpresentation" : 0,
		"default_fontsize" : 12.0,
		"default_fontface" : 0,
		"default_fontname" : "Arial",
		"gridonopen" : 0,
		"gridsize" : [ 15.0, 15.0 ],
		"gridsnaponopen" : 0,
		"toolbarvisible" : 1,
		"boxanimatetime" : 200,
		"imprint" : 0,
		"metadata" : [  ],
		"boxes" : [ 			{
				"box" : 				{
					"maxclass" : "number",
					"numoutlets" : 2,
					"patching_rect" : [ 283.0, 244.0, 17.996094, 20.0 ],
					"id" : "obj-25",
					"outlettype" : [ "int", "bang" ],
					"fontsize" : 12.0,
					"numinlets" : 1,
					"fontname" : "Arial",
					"triangle" : 0
				}

			}
, 			{
				"box" : 				{
					"maxclass" : "newobj",
					"text" : "split 0 2",
					"numoutlets" : 2,
					"patching_rect" : [ 135.0, 157.0, 52.0, 20.0 ],
					"id" : "obj-23",
					"outlettype" : [ "int", "int" ],
					"fontsize" : 12.0,
					"numinlets" : 3,
					"fontname" : "Arial"
				}

			}
, 			{
				"box" : 				{
					"maxclass" : "newobj",
					"text" : "- 3",
					"numoutlets" : 1,
					"patching_rect" : [ 190.0, 181.0, 32.5, 20.0 ],
					"id" : "obj-22",
					"outlettype" : [ "int" ],
					"fontsize" : 12.0,
					"numinlets" : 2,
					"fontname" : "Arial"
				}

			}
, 			{
				"box" : 				{
					"maxclass" : "newobj",
					"text" : "- 8",
					"numoutlets" : 1,
					"patching_rect" : [ 243.0, 181.0, 32.5, 20.0 ],
					"id" : "obj-21",
					"outlettype" : [ "int" ],
					"fontsize" : 12.0,
					"numinlets" : 2,
					"fontname" : "Arial"
				}

			}
, 			{
				"box" : 				{
					"maxclass" : "newobj",
					"text" : "t 3 i",
					"numoutlets" : 2,
					"patching_rect" : [ 190.0, 206.0, 32.5, 20.0 ],
					"id" : "obj-19",
					"outlettype" : [ "int", "int" ],
					"fontsize" : 12.0,
					"numinlets" : 1,
					"fontname" : "Arial"
				}

			}
, 			{
				"box" : 				{
					"maxclass" : "newobj",
					"text" : "split 3 7",
					"numoutlets" : 2,
					"patching_rect" : [ 190.0, 157.0, 52.0, 20.0 ],
					"id" : "obj-20",
					"outlettype" : [ "int", "int" ],
					"fontsize" : 12.0,
					"numinlets" : 3,
					"fontname" : "Arial"
				}

			}
, 			{
				"box" : 				{
					"maxclass" : "newobj",
					"text" : "t 4 i",
					"numoutlets" : 2,
					"patching_rect" : [ 243.0, 205.0, 32.5, 20.0 ],
					"id" : "obj-16",
					"outlettype" : [ "int", "int" ],
					"fontsize" : 12.0,
					"numinlets" : 1,
					"fontname" : "Arial"
				}

			}
, 			{
				"box" : 				{
					"maxclass" : "newobj",
					"text" : "split 8 32",
					"numoutlets" : 2,
					"patching_rect" : [ 243.0, 157.0, 59.0, 20.0 ],
					"id" : "obj-12",
					"outlettype" : [ "int", "int" ],
					"fontsize" : 12.0,
					"numinlets" : 3,
					"fontname" : "Arial"
				}

			}
, 			{
				"box" : 				{
					"maxclass" : "umenu",
					"arrowframe" : 0,
					"numoutlets" : 3,
					"patching_rect" : [ 150.0, 102.0, 100.0, 20.0 ],
					"id" : "obj-1",
					"arrowlink" : 0,
					"outlettype" : [ "int", "", "" ],
					"fontsize" : 12.0,
					"types" : [  ],
					"items" : [ "closed", ",", "clean", ",", "allpass", ",", "teeth-vibrato", ",", "teeth-flanger", ",", "teeth-chorus", ",", "teeth-white", ",", "teeth-doubling", ",", "Sopr_A", ",", "Sopr_E", ",", "Sopr_I", ",", "Sopr_O", ",", "Sopr_U", ",", "Alto_A", ",", "Alto_E", ",", "Alto_I", ",", "Alto_O", ",", "Alto_U", ",", "Cten_A", ",", "Cten_E", ",", "Cten_I", ",", "Cten_O", ",", "Cten_U", ",", "Ten_A", ",", "Ten_E", ",", "Ten_I", ",", "Ten_O", ",", "Ten_U", ",", "Bass_A", ",", "Bass_E", ",", "Bass_I", ",", "Bass_O", ",", "Bass_U" ],
					"numinlets" : 1,
					"fontname" : "Arial",
					"arrow" : 0
				}

			}
, 			{
				"box" : 				{
					"maxclass" : "inlet",
					"numoutlets" : 1,
					"patching_rect" : [ 150.0, 68.0, 25.0, 25.0 ],
					"id" : "obj-7",
					"outlettype" : [ "" ],
					"numinlets" : 0,
					"comment" : ""
				}

			}
, 			{
				"box" : 				{
					"maxclass" : "outlet",
					"numoutlets" : 0,
					"patching_rect" : [ 280.0, 400.0, 25.0, 25.0 ],
					"id" : "obj-6",
					"numinlets" : 1,
					"comment" : ""
				}

			}
, 			{
				"box" : 				{
					"maxclass" : "inlet",
					"numoutlets" : 1,
					"patching_rect" : [ 334.0, 68.0, 25.0, 25.0 ],
					"id" : "obj-5",
					"outlettype" : [ "" ],
					"numinlets" : 0,
					"comment" : ""
				}

			}
, 			{
				"box" : 				{
					"maxclass" : "newobj",
					"text" : "p model_wovel",
					"numoutlets" : 1,
					"patching_rect" : [ 321.0, 303.0, 91.0, 20.0 ],
					"id" : "obj-4",
					"outlettype" : [ "signal" ],
					"fontsize" : 12.0,
					"numinlets" : 2,
					"fontname" : "Arial",
					"patcher" : 					{
						"fileversion" : 1,
						"rect" : [ 50.0, 94.0, 457.0, 457.0 ],
						"bglocked" : 0,
						"defrect" : [ 50.0, 94.0, 457.0, 457.0 ],
						"openrect" : [ 0.0, 0.0, 0.0, 0.0 ],
						"openinpresentation" : 0,
						"default_fontsize" : 12.0,
						"default_fontface" : 0,
						"default_fontname" : "Arial",
						"gridonopen" : 0,
						"gridsize" : [ 15.0, 15.0 ],
						"gridsnaponopen" : 0,
						"toolbarvisible" : 1,
						"boxanimatetime" : 200,
						"imprint" : 0,
						"metadata" : [  ],
						"boxes" : [ 							{
								"box" : 								{
									"maxclass" : "flonum",
									"numoutlets" : 2,
									"patching_rect" : [ 179.0, 340.0, 50.0, 20.0 ],
									"id" : "obj-4",
									"outlettype" : [ "float", "bang" ],
									"fontsize" : 12.0,
									"numinlets" : 1,
									"fontname" : "Arial"
								}

							}
, 							{
								"box" : 								{
									"maxclass" : "inlet",
									"numoutlets" : 1,
									"patching_rect" : [ 187.0, 60.0, 25.0, 25.0 ],
									"id" : "obj-3",
									"outlettype" : [ "int" ],
									"numinlets" : 0,
									"comment" : ""
								}

							}
, 							{
								"box" : 								{
									"maxclass" : "meter~",
									"numoutlets" : 1,
									"patching_rect" : [ 179.0, 321.0, 80.0, 13.0 ],
									"id" : "obj-33",
									"outlettype" : [ "float" ],
									"numinlets" : 1
								}

							}
, 							{
								"box" : 								{
									"maxclass" : "newobj",
									"text" : "ivf.noisegate~",
									"numoutlets" : 1,
									"patching_rect" : [ 101.0, 338.0, 74.0, 17.0 ],
									"id" : "obj-105",
									"outlettype" : [ "signal" ],
									"fontsize" : 9.0,
									"numinlets" : 2,
									"fontname" : "Arial"
								}

							}
, 							{
								"box" : 								{
									"maxclass" : "newobj",
									"text" : "loadmess 0.003",
									"numoutlets" : 1,
									"patching_rect" : [ 83.0, 249.0, 74.0, 17.0 ],
									"id" : "obj-100",
									"outlettype" : [ "" ],
									"fontsize" : 9.0,
									"numinlets" : 1,
									"fontname" : "Arial"
								}

							}
, 							{
								"box" : 								{
									"maxclass" : "message",
									"text" : "attack 50, release 250, lookahead 50, threshold $1",
									"linecount" : 4,
									"numoutlets" : 1,
									"patching_rect" : [ 83.0, 272.0, 68.0, 46.0 ],
									"id" : "obj-102",
									"outlettype" : [ "" ],
									"fontsize" : 9.0,
									"numinlets" : 2,
									"fontname" : "Arial"
								}

							}
, 							{
								"box" : 								{
									"maxclass" : "newobj",
									"text" : "% 5",
									"numoutlets" : 1,
									"patching_rect" : [ 292.0, 96.0, 32.5, 20.0 ],
									"id" : "obj-75",
									"outlettype" : [ "int" ],
									"fontsize" : 12.0,
									"numinlets" : 2,
									"fontname" : "Arial"
								}

							}
, 							{
								"box" : 								{
									"maxclass" : "newobj",
									"text" : "/ 5",
									"numoutlets" : 1,
									"patching_rect" : [ 187.0, 96.0, 32.5, 20.0 ],
									"id" : "obj-74",
									"outlettype" : [ "int" ],
									"fontsize" : 12.0,
									"numinlets" : 2,
									"fontname" : "Arial"
								}

							}
, 							{
								"box" : 								{
									"maxclass" : "newobj",
									"text" : "*~ 0.01",
									"numoutlets" : 1,
									"patching_rect" : [ 156.0, 297.0, 49.0, 20.0 ],
									"id" : "obj-62",
									"outlettype" : [ "signal" ],
									"fontsize" : 12.0,
									"numinlets" : 2,
									"fontname" : "Arial"
								}

							}
, 							{
								"box" : 								{
									"maxclass" : "newobj",
									"text" : "resonators~ smooth",
									"numoutlets" : 2,
									"patching_rect" : [ 156.0, 275.0, 100.0, 17.0 ],
									"id" : "obj-67",
									"outlettype" : [ "signal", "list" ],
									"fontsize" : 9.0,
									"numinlets" : 1,
									"fontname" : "Arial"
								}

							}
, 							{
								"box" : 								{
									"maxclass" : "umenu",
									"numoutlets" : 3,
									"patching_rect" : [ 292.0, 121.0, 20.0, 23.0 ],
									"id" : "obj-5",
									"outlettype" : [ "int", "", "" ],
									"fontsize" : 14.0,
									"types" : [  ],
									"items" : [ "a", ",", "e", ",", "i", ",", "o", ",", "u" ],
									"numinlets" : 1,
									"fontname" : "Arial"
								}

							}
, 							{
								"box" : 								{
									"maxclass" : "newobj",
									"text" : "sprintf %s%s",
									"numoutlets" : 1,
									"patching_rect" : [ 230.0, 178.0, 70.0, 17.0 ],
									"id" : "obj-51",
									"outlettype" : [ "" ],
									"fontsize" : 9.0,
									"numinlets" : 2,
									"fontname" : "Arial"
								}

							}
, 							{
								"box" : 								{
									"maxclass" : "umenu",
									"numoutlets" : 3,
									"patching_rect" : [ 187.0, 121.0, 104.0, 23.0 ],
									"id" : "obj-52",
									"outlettype" : [ "int", "", "" ],
									"fontsize" : 14.0,
									"types" : [  ],
									"items" : [ "Soprano", ",", "Alto", ",", "Contratenor", ",", "Tenor", ",", "Bass" ],
									"numinlets" : 1,
									"fontname" : "Arial"
								}

							}
, 							{
								"box" : 								{
									"maxclass" : "newobj",
									"text" : "t b s",
									"numoutlets" : 2,
									"patching_rect" : [ 251.0, 153.0, 28.0, 17.0 ],
									"id" : "obj-32",
									"outlettype" : [ "bang", "" ],
									"fontsize" : 9.0,
									"numinlets" : 1,
									"fontname" : "Arial"
								}

							}
, 							{
								"box" : 								{
									"maxclass" : "newobj",
									"text" : "prepend formant-form",
									"numoutlets" : 1,
									"patching_rect" : [ 230.0, 223.0, 111.0, 17.0 ],
									"id" : "obj-65",
									"outlettype" : [ "" ],
									"fontsize" : 9.0,
									"numinlets" : 1,
									"fontname" : "Arial"
								}

							}
, 							{
								"box" : 								{
									"maxclass" : "newobj",
									"text" : "coll ircam-wovels 1",
									"numoutlets" : 4,
									"patching_rect" : [ 230.0, 200.0, 101.0, 17.0 ],
									"id" : "obj-66",
									"outlettype" : [ "", "", "", "" ],
									"fontsize" : 9.0,
									"numinlets" : 1,
									"fontname" : "Arial",
									"save" : [ "#N", "coll", "ircam-wovels", 1, ";", "#T", "flags", 1, 0, ";", "#T", "store", "Sopranoa", 800.0, 0.0, 80.0, 1150.0, -6.0, 90.0, 2900.0, -32.0, 120.0, 3900.0, -20.0, 130.0, 4950.0, -50.0, 140.0, ";", "#T", "store", "Sopranoe", 350.0, 0.0, 60.0, 2000.0, -20.0, 100.0, 2800.0, -15.0, 120.0, 3600.0, -40.0, 150.0, 4950.0, -56.0, 200.0, ";", "#T", "store", "Sopranoi", 270.0, 0.0, 60.0, 2140.0, -12.0, 90.0, 2950.0, -26.0, 100.0, 3900.0, -26.0, 120.0, 4950.0, -44.0, 120.0, ";", "#T", "store", "Sopranoo", 450.0, 0.0, 70.0, 800.0, -11.0, 80.0, 2830.0, -22.0, 100.0, 3800.0, -22.0, 130.0, 4950.0, -50.0, 135.0, ";", "#T", "store", "Sopranou", 325.0, 0.0, 50.0, 700.0, -16.0, 60.0, 2700.0, -35.0, 170.0, 3800.0, -40.0, 180.0, 4950.0, -60.0, 200.0, ";", "#T", "store", "Altoa", 800.0, 0.0, 80.0, 1150.0, -4.0, 90.0, 2800.0, -20.0, 120.0, 3500.0, -36.0, 130.0, 4950.0, -60.0, 140.0, ";", "#T", "store", "Altoe", 400.0, 0.0, 60.0, 1600.0, -24.0, 80.0, 2700.0, -20.0, 120.0, 3300.0, -35.0, 150.0, 4950.0, -60.0, 200.0, ";", "#T", "store", "Altoi", 350.0, 0.0, 50.0, 1700.0, -20.0, 100.0, 2700.0, -30.0, 120.0, 3700.0, -36.0, 150.0, 4950.0, -60.0, 200.0, ";", "#T", "store", "Altoo", 450.0, 0.0, 70.0, 800.0, -9.0, 80.0, 2830.0, -16.0, 100.0, 3500.0, -28.0, 130.0, 4950.0, -35.0, 135.0, ";", "#T", "store", "Altou", 325.0, 0.0, 50.0, 700.0, -12.0, 60.0, 2530.0, -30.0, 170.0, 3500.0, -40.0, 180.0, 4950.0, -64.0, 200.0, ";", "#T", "store", "Contratenora", 660.0, 0.0, 80.0, 1120.0, -6.0, 90.0, 2750.0, -23.0, 120.0, 3000.0, -24.0, 130.0, 3350.0, -38.0, 140.0, ";", "#T", "store", "Contratenore", 440.0, 0.0, 70.0, 1800.0, -14.0, 80.0, 2700.0, -18.0, 100.0, 3000.0, -20.0, 120.0, 3300.0, -20.0, 120.0, ";", "#T", "store", "Contratenori", 270.0, 0.0, 40.0, 1850.0, -24.0, 90.0, 2900.0, -24.0, 100.0, 3350.0, -36.0, 120.0, 3590.0, -36.0, 120.0, ";", "#T", "store", "Contratenoro", 430.0, 0.0, 40.0, 820.0, -10.0, 80.0, 2700.0, -26.0, 100.0, 3000.0, -22.0, 120.0, 3300.0, -34.0, 120.0, ";", "#T", "store", "Contratenoru", 370.0, 0.0, 40.0, 630.0, -20.0, 80.0, 2750.0, -23.0, 100.0, 3000.0, -30.0, 120.0, 3400.0, -34.0, 120.0, ";", "#T", "store", "Tenora", 650.0, 0.0, 80.0, 1080.0, -6.0, 90.0, 2650.0, -7.0, 120.0, 2900.0, -8.0, 130.0, 3250.0, -22.0, 140.0, ";", "#T", "store", "Tenore", 400.0, 0.0, 70.0, 1700.0, -14.0, 80.0, 2600.0, -12.0, 100.0, 3200.0, -14.0, 120.0, 3580.0, -20.0, 120.0, ";", "#T", "store", "Tenori", 290.0, 0.0, 40.0, 1870.0, -15.0, 90.0, 2800.0, -18.0, 100.0, 3250.0, -20.0, 120.0, 3540.0, -30.0, 120.0, ";", "#T", "store", "Tenoro", 400.0, 0.0, 40.0, 800.0, -10.0, 80.0, 2600.0, -12.0, 100.0, 2800.0, -12.0, 120.0, 3000.0, -26.0, 120.0, ";", "#T", "store", "Tenoru", 350.0, 0.0, 40.0, 600.0, -20.0, 60.0, 2700.0, -17.0, 100.0, 2900.0, -14.0, 120.0, 3300.0, -26.0, 120.0, ";", "#T", "store", "Bassa", 600.0, 0.0, 60.0, 1040.0, -7.0, 70.0, 2250.0, -9.0, 110.0, 2450.0, -9.0, 120.0, 2750.0, -20.0, 130.0, ";", "#T", "store", "Basse", 400.0, 0.0, 40.0, 1620.0, -12.0, 80.0, 2400.0, -9.0, 100.0, 2800.0, -12.0, 120.0, 3100.0, -18.0, 120.0, ";", "#T", "store", "Bassi", 250.0, 0.0, 60.0, 1750.0, -30.0, 90.0, 2600.0, -16.0, 100.0, 3050.0, -22.0, 120.0, 3340.0, -28.0, 120.0, ";", "#T", "store", "Basso", 400.0, 0.0, 40.0, 750.0, -11.0, 80.0, 2400.0, -21.0, 100.0, 2600.0, -20.0, 120.0, 2900.0, -40.0, 120.0, ";", "#T", "store", "Bassu", 350.0, 0.0, 40.0, 600.0, -20.0, 80.0, 2400.0, -32.0, 100.0, 2675.0, -28.0, 120.0, 2950.0, -36.0, 120.0, ";" ],
									"saved_object_attributes" : 									{
										"embed" : 1
									}

								}

							}
, 							{
								"box" : 								{
									"maxclass" : "newobj",
									"text" : "res-transform",
									"numoutlets" : 1,
									"patching_rect" : [ 230.0, 245.0, 76.0, 17.0 ],
									"id" : "obj-68",
									"outlettype" : [ "list" ],
									"fontsize" : 9.0,
									"numinlets" : 2,
									"fontname" : "Arial"
								}

							}
, 							{
								"box" : 								{
									"maxclass" : "outlet",
									"numoutlets" : 0,
									"patching_rect" : [ 101.0, 364.0, 25.0, 25.0 ],
									"id" : "obj-2",
									"numinlets" : 1,
									"comment" : ""
								}

							}
, 							{
								"box" : 								{
									"maxclass" : "inlet",
									"numoutlets" : 1,
									"patching_rect" : [ 156.0, 60.0, 25.0, 25.0 ],
									"id" : "obj-1",
									"outlettype" : [ "signal" ],
									"numinlets" : 0,
									"comment" : ""
								}

							}
 ],
						"lines" : [ 							{
								"patchline" : 								{
									"source" : [ "obj-100", 0 ],
									"destination" : [ "obj-102", 0 ],
									"hidden" : 0,
									"midpoints" : [  ]
								}

							}
, 							{
								"patchline" : 								{
									"source" : [ "obj-33", 0 ],
									"destination" : [ "obj-4", 0 ],
									"hidden" : 0,
									"midpoints" : [  ]
								}

							}
, 							{
								"patchline" : 								{
									"source" : [ "obj-75", 0 ],
									"destination" : [ "obj-5", 0 ],
									"hidden" : 0,
									"midpoints" : [  ]
								}

							}
, 							{
								"patchline" : 								{
									"source" : [ "obj-3", 0 ],
									"destination" : [ "obj-75", 0 ],
									"hidden" : 0,
									"midpoints" : [ 196.5, 91.0, 301.5, 91.0 ]
								}

							}
, 							{
								"patchline" : 								{
									"source" : [ "obj-74", 0 ],
									"destination" : [ "obj-52", 0 ],
									"hidden" : 0,
									"midpoints" : [  ]
								}

							}
, 							{
								"patchline" : 								{
									"source" : [ "obj-3", 0 ],
									"destination" : [ "obj-74", 0 ],
									"hidden" : 0,
									"midpoints" : [  ]
								}

							}
, 							{
								"patchline" : 								{
									"source" : [ "obj-102", 0 ],
									"destination" : [ "obj-105", 0 ],
									"hidden" : 0,
									"midpoints" : [ 92.5, 332.0, 110.5, 332.0 ]
								}

							}
, 							{
								"patchline" : 								{
									"source" : [ "obj-1", 0 ],
									"destination" : [ "obj-67", 0 ],
									"hidden" : 0,
									"midpoints" : [  ]
								}

							}
, 							{
								"patchline" : 								{
									"source" : [ "obj-105", 0 ],
									"destination" : [ "obj-2", 0 ],
									"hidden" : 0,
									"midpoints" : [  ]
								}

							}
, 							{
								"patchline" : 								{
									"source" : [ "obj-62", 0 ],
									"destination" : [ "obj-33", 0 ],
									"hidden" : 0,
									"midpoints" : [  ]
								}

							}
, 							{
								"patchline" : 								{
									"source" : [ "obj-32", 1 ],
									"destination" : [ "obj-51", 1 ],
									"hidden" : 0,
									"midpoints" : [  ]
								}

							}
, 							{
								"patchline" : 								{
									"source" : [ "obj-5", 1 ],
									"destination" : [ "obj-32", 0 ],
									"hidden" : 0,
									"midpoints" : [ 302.0, 148.0, 260.5, 148.0 ]
								}

							}
, 							{
								"patchline" : 								{
									"source" : [ "obj-65", 0 ],
									"destination" : [ "obj-68", 0 ],
									"hidden" : 0,
									"midpoints" : [  ]
								}

							}
, 							{
								"patchline" : 								{
									"source" : [ "obj-66", 0 ],
									"destination" : [ "obj-65", 0 ],
									"hidden" : 0,
									"midpoints" : [  ]
								}

							}
, 							{
								"patchline" : 								{
									"source" : [ "obj-51", 0 ],
									"destination" : [ "obj-66", 0 ],
									"hidden" : 0,
									"midpoints" : [  ]
								}

							}
, 							{
								"patchline" : 								{
									"source" : [ "obj-32", 0 ],
									"destination" : [ "obj-51", 0 ],
									"hidden" : 0,
									"midpoints" : [  ]
								}

							}
, 							{
								"patchline" : 								{
									"source" : [ "obj-52", 1 ],
									"destination" : [ "obj-51", 0 ],
									"hidden" : 0,
									"midpoints" : [  ]
								}

							}
, 							{
								"patchline" : 								{
									"source" : [ "obj-68", 0 ],
									"destination" : [ "obj-67", 0 ],
									"hidden" : 0,
									"midpoints" : [ 239.5, 269.0, 165.5, 269.0 ]
								}

							}
, 							{
								"patchline" : 								{
									"source" : [ "obj-67", 0 ],
									"destination" : [ "obj-62", 0 ],
									"hidden" : 0,
									"midpoints" : [  ]
								}

							}
, 							{
								"patchline" : 								{
									"source" : [ "obj-62", 0 ],
									"destination" : [ "obj-105", 1 ],
									"hidden" : 0,
									"midpoints" : [  ]
								}

							}
 ]
					}
,
					"saved_object_attributes" : 					{
						"default_fontname" : "Arial",
						"default_fontsize" : 12.0,
						"fontface" : 0,
						"fontsize" : 12.0,
						"globalpatchername" : "",
						"default_fontface" : 0,
						"fontname" : "Arial"
					}

				}

			}
, 			{
				"box" : 				{
					"maxclass" : "newobj",
					"text" : "loadmess 1",
					"numoutlets" : 1,
					"patching_rect" : [ 176.0, 68.0, 72.0, 20.0 ],
					"id" : "obj-49",
					"outlettype" : [ "" ],
					"fontsize" : 12.0,
					"numinlets" : 1,
					"fontname" : "Arial"
				}

			}
, 			{
				"box" : 				{
					"maxclass" : "newobj",
					"text" : "gate~ 5",
					"numoutlets" : 5,
					"patching_rect" : [ 280.0, 268.0, 73.0, 20.0 ],
					"id" : "obj-47",
					"outlettype" : [ "signal", "signal", "signal", "signal", "signal" ],
					"fontsize" : 12.0,
					"numinlets" : 2,
					"fontname" : "Arial"
				}

			}
, 			{
				"box" : 				{
					"maxclass" : "newobj",
					"text" : "p model_allpass",
					"numoutlets" : 1,
					"patching_rect" : [ 294.0, 368.0, 97.0, 20.0 ],
					"id" : "obj-44",
					"outlettype" : [ "signal" ],
					"fontsize" : 12.0,
					"numinlets" : 1,
					"fontname" : "Arial",
					"patcher" : 					{
						"fileversion" : 1,
						"rect" : [ 25.0, 69.0, 640.0, 480.0 ],
						"bglocked" : 0,
						"defrect" : [ 25.0, 69.0, 640.0, 480.0 ],
						"openrect" : [ 0.0, 0.0, 0.0, 0.0 ],
						"openinpresentation" : 0,
						"default_fontsize" : 12.0,
						"default_fontface" : 0,
						"default_fontname" : "Arial",
						"gridonopen" : 0,
						"gridsize" : [ 15.0, 15.0 ],
						"gridsnaponopen" : 0,
						"toolbarvisible" : 1,
						"boxanimatetime" : 200,
						"imprint" : 0,
						"metadata" : [  ],
						"boxes" : [ 							{
								"box" : 								{
									"maxclass" : "outlet",
									"numoutlets" : 0,
									"patching_rect" : [ 119.0, 299.0, 25.0, 25.0 ],
									"id" : "obj-3",
									"numinlets" : 1,
									"comment" : ""
								}

							}
, 							{
								"box" : 								{
									"maxclass" : "inlet",
									"numoutlets" : 1,
									"patching_rect" : [ 120.0, 188.0, 25.0, 25.0 ],
									"id" : "obj-1",
									"outlettype" : [ "signal" ],
									"numinlets" : 0,
									"comment" : ""
								}

							}
, 							{
								"box" : 								{
									"maxclass" : "newobj",
									"text" : "allpass~ 85 28 0.8",
									"numoutlets" : 1,
									"patching_rect" : [ 120.0, 250.0, 108.0, 20.0 ],
									"id" : "obj-2",
									"outlettype" : [ "signal" ],
									"fontsize" : 12.0,
									"numinlets" : 3,
									"fontname" : "Arial"
								}

							}
 ],
						"lines" : [ 							{
								"patchline" : 								{
									"source" : [ "obj-2", 0 ],
									"destination" : [ "obj-3", 0 ],
									"hidden" : 0,
									"midpoints" : [  ]
								}

							}
, 							{
								"patchline" : 								{
									"source" : [ "obj-1", 0 ],
									"destination" : [ "obj-2", 0 ],
									"hidden" : 0,
									"midpoints" : [  ]
								}

							}
 ]
					}
,
					"saved_object_attributes" : 					{
						"default_fontname" : "Arial",
						"default_fontsize" : 12.0,
						"fontface" : 0,
						"fontsize" : 12.0,
						"globalpatchername" : "",
						"default_fontface" : 0,
						"fontname" : "Arial"
					}

				}

			}
, 			{
				"box" : 				{
					"maxclass" : "newobj",
					"text" : "p model_teeth",
					"numoutlets" : 1,
					"patching_rect" : [ 307.0, 336.0, 87.0, 20.0 ],
					"id" : "obj-46",
					"outlettype" : [ "signal" ],
					"fontsize" : 12.0,
					"numinlets" : 2,
					"fontname" : "Arial",
					"patcher" : 					{
						"fileversion" : 1,
						"rect" : [ 278.0, 44.0, 640.0, 480.0 ],
						"bglocked" : 0,
						"defrect" : [ 278.0, 44.0, 640.0, 480.0 ],
						"openrect" : [ 0.0, 0.0, 0.0, 0.0 ],
						"openinpresentation" : 0,
						"default_fontsize" : 12.0,
						"default_fontface" : 0,
						"default_fontname" : "Arial",
						"gridonopen" : 0,
						"gridsize" : [ 15.0, 15.0 ],
						"gridsnaponopen" : 0,
						"toolbarvisible" : 1,
						"boxanimatetime" : 200,
						"imprint" : 0,
						"metadata" : [  ],
						"boxes" : [ 							{
								"box" : 								{
									"maxclass" : "newobj",
									"text" : "+ 1",
									"numoutlets" : 1,
									"patching_rect" : [ 83.0, 114.0, 32.5, 20.0 ],
									"id" : "obj-5",
									"outlettype" : [ "int" ],
									"fontsize" : 12.0,
									"numinlets" : 2,
									"fontname" : "Arial"
								}

							}
, 							{
								"box" : 								{
									"maxclass" : "inlet",
									"numoutlets" : 1,
									"patching_rect" : [ 83.0, 83.0, 25.0, 25.0 ],
									"id" : "obj-4",
									"outlettype" : [ "int" ],
									"numinlets" : 0,
									"comment" : ""
								}

							}
, 							{
								"box" : 								{
									"maxclass" : "newobj",
									"text" : "loadbang",
									"numoutlets" : 1,
									"patching_rect" : [ 398.0, 80.0, 60.0, 20.0 ],
									"id" : "obj-3",
									"outlettype" : [ "bang" ],
									"fontsize" : 12.0,
									"hidden" : 1,
									"numinlets" : 1,
									"fontname" : "Arial"
								}

							}
, 							{
								"box" : 								{
									"maxclass" : "message",
									"text" : "5",
									"numoutlets" : 1,
									"patching_rect" : [ 380.0, 141.0, 18.0, 18.0 ],
									"id" : "obj-19",
									"outlettype" : [ "" ],
									"fontsize" : 11.595187,
									"numinlets" : 2,
									"fontname" : "Arial"
								}

							}
, 							{
								"box" : 								{
									"maxclass" : "message",
									"text" : "4",
									"numoutlets" : 1,
									"patching_rect" : [ 380.0, 121.0, 18.0, 18.0 ],
									"id" : "obj-20",
									"outlettype" : [ "" ],
									"fontsize" : 11.595187,
									"numinlets" : 2,
									"fontname" : "Arial"
								}

							}
, 							{
								"box" : 								{
									"maxclass" : "message",
									"text" : "3",
									"numoutlets" : 1,
									"patching_rect" : [ 380.0, 101.0, 18.0, 18.0 ],
									"id" : "obj-21",
									"outlettype" : [ "" ],
									"fontsize" : 11.595187,
									"numinlets" : 2,
									"fontname" : "Arial"
								}

							}
, 							{
								"box" : 								{
									"maxclass" : "message",
									"text" : "2",
									"numoutlets" : 1,
									"patching_rect" : [ 379.0, 81.0, 18.0, 18.0 ],
									"id" : "obj-22",
									"outlettype" : [ "" ],
									"fontsize" : 11.595187,
									"numinlets" : 2,
									"fontname" : "Arial"
								}

							}
, 							{
								"box" : 								{
									"maxclass" : "message",
									"text" : "1",
									"numoutlets" : 1,
									"patching_rect" : [ 380.0, 61.0, 18.0, 18.0 ],
									"id" : "obj-23",
									"outlettype" : [ "" ],
									"fontsize" : 11.595187,
									"numinlets" : 2,
									"fontname" : "Arial"
								}

							}
, 							{
								"box" : 								{
									"maxclass" : "comment",
									"text" : "\"doubling\"",
									"numoutlets" : 0,
									"patching_rect" : [ 318.0, 140.0, 63.0, 20.0 ],
									"id" : "obj-24",
									"fontsize" : 11.595187,
									"numinlets" : 1,
									"fontname" : "Arial"
								}

							}
, 							{
								"box" : 								{
									"maxclass" : "comment",
									"text" : "\"industry-standard chorus\"",
									"numoutlets" : 0,
									"patching_rect" : [ 235.0, 100.0, 146.0, 20.0 ],
									"id" : "obj-25",
									"fontsize" : 11.595187,
									"numinlets" : 1,
									"fontname" : "Arial"
								}

							}
, 							{
								"box" : 								{
									"maxclass" : "comment",
									"text" : "\"flanger\"",
									"numoutlets" : 0,
									"patching_rect" : [ 327.0, 80.0, 54.0, 20.0 ],
									"id" : "obj-26",
									"fontsize" : 11.595187,
									"numinlets" : 1,
									"fontname" : "Arial"
								}

							}
, 							{
								"box" : 								{
									"maxclass" : "preset",
									"numoutlets" : 4,
									"patching_rect" : [ 352.0, 164.0, 58.0, 27.0 ],
									"id" : "obj-31",
									"bubblesize" : 8,
									"outlettype" : [ "preset", "int", "preset", "int" ],
									"fontsize" : 12.754706,
									"spacing" : 2,
									"numinlets" : 1,
									"margin" : 4,
									"preset_data" : [ 										{
											"number" : 1,
											"data" : [ 5, "obj-34", "flonum", "float", 0.0, 5, "obj-35", "flonum", "float", 1.0, 5, "obj-36", "flonum", "float", 0.0, 5, "obj-42", "flonum", "float", 1.0, 5, "obj-39", "flonum", "float", 3.0, 5, "obj-40", "flonum", "float", 0.95 ]
										}
, 										{
											"number" : 2,
											"data" : [ 5, "obj-34", "flonum", "float", -0.71, 5, "obj-35", "flonum", "float", 0.71, 5, "obj-36", "flonum", "float", 0.71, 5, "obj-42", "flonum", "float", 1.0, 5, "obj-39", "flonum", "float", 1.49, 5, "obj-40", "flonum", "float", 0.89 ]
										}
, 										{
											"number" : 3,
											"data" : [ 5, "obj-34", "flonum", "float", 0.000001, 5, "obj-35", "flonum", "float", 0.71, 5, "obj-36", "flonum", "float", 1.0, 5, "obj-42", "flonum", "float", 5.0, 5, "obj-39", "flonum", "float", 1.0, 5, "obj-40", "flonum", "float", 1.13 ]
										}
, 										{
											"number" : 4,
											"data" : [ 5, "obj-34", "flonum", "float", 0.71, 5, "obj-35", "flonum", "float", 1.0, 5, "obj-36", "flonum", "float", 0.71, 5, "obj-42", "flonum", "float", 10.0, 5, "obj-39", "flonum", "float", 1.410001, 5, "obj-40", "flonum", "float", 1.11 ]
										}
, 										{
											"number" : 5,
											"data" : [ 5, "obj-34", "flonum", "float", 0.000001, 5, "obj-35", "flonum", "float", 0.71, 5, "obj-36", "flonum", "float", 0.71, 5, "obj-42", "flonum", "float", 20.0, 5, "obj-39", "flonum", "float", 0.660001, 5, "obj-40", "flonum", "float", 1.409999 ]
										}
 ]
								}

							}
, 							{
								"box" : 								{
									"maxclass" : "flonum",
									"numoutlets" : 2,
									"patching_rect" : [ 350.0, 221.0, 50.0, 20.0 ],
									"id" : "obj-34",
									"triscale" : 0.9,
									"outlettype" : [ "float", "bang" ],
									"fontsize" : 11.595187,
									"htextcolor" : [ 0.870588, 0.870588, 0.870588, 1.0 ],
									"presentation_rect" : [ 15.0, 15.0, 50.0, 20.0 ],
									"numinlets" : 1,
									"fontname" : "Arial"
								}

							}
, 							{
								"box" : 								{
									"maxclass" : "flonum",
									"numoutlets" : 2,
									"patching_rect" : [ 295.399994, 221.0, 50.0, 20.0 ],
									"id" : "obj-35",
									"triscale" : 0.9,
									"outlettype" : [ "float", "bang" ],
									"fontsize" : 11.595187,
									"htextcolor" : [ 0.870588, 0.870588, 0.870588, 1.0 ],
									"presentation_rect" : [ 15.0, 15.0, 50.0, 20.0 ],
									"numinlets" : 1,
									"fontname" : "Arial"
								}

							}
, 							{
								"box" : 								{
									"maxclass" : "flonum",
									"numoutlets" : 2,
									"patching_rect" : [ 240.799988, 221.0, 50.0, 20.0 ],
									"id" : "obj-36",
									"triscale" : 0.9,
									"outlettype" : [ "float", "bang" ],
									"fontsize" : 11.595187,
									"htextcolor" : [ 0.870588, 0.870588, 0.870588, 1.0 ],
									"presentation_rect" : [ 15.0, 15.0, 50.0, 20.0 ],
									"numinlets" : 1,
									"fontname" : "Arial"
								}

							}
, 							{
								"box" : 								{
									"maxclass" : "comment",
									"text" : "depth",
									"numoutlets" : 0,
									"patching_rect" : [ 83.0, 203.0, 40.0, 20.0 ],
									"id" : "obj-37",
									"fontsize" : 11.595187,
									"presentation_rect" : [ 15.0, 15.0, 50.0, 20.0 ],
									"numinlets" : 1,
									"fontname" : "Arial"
								}

							}
, 							{
								"box" : 								{
									"maxclass" : "comment",
									"text" : "delay",
									"numoutlets" : 0,
									"patching_rect" : [ 192.0, 203.0, 38.0, 20.0 ],
									"id" : "obj-38",
									"fontsize" : 11.595187,
									"presentation_rect" : [ 15.0, 15.0, 50.0, 20.0 ],
									"numinlets" : 1,
									"fontname" : "Arial"
								}

							}
, 							{
								"box" : 								{
									"maxclass" : "flonum",
									"numoutlets" : 2,
									"patching_rect" : [ 131.0, 221.0, 50.0, 20.0 ],
									"id" : "obj-39",
									"triscale" : 0.9,
									"outlettype" : [ "float", "bang" ],
									"fontsize" : 11.595187,
									"htextcolor" : [ 0.870588, 0.870588, 0.870588, 1.0 ],
									"presentation_rect" : [ 15.0, 15.0, 50.0, 20.0 ],
									"numinlets" : 1,
									"fontname" : "Arial"
								}

							}
, 							{
								"box" : 								{
									"maxclass" : "flonum",
									"numoutlets" : 2,
									"patching_rect" : [ 76.0, 221.0, 50.0, 20.0 ],
									"id" : "obj-40",
									"triscale" : 0.9,
									"outlettype" : [ "float", "bang" ],
									"fontsize" : 11.595187,
									"htextcolor" : [ 0.870588, 0.870588, 0.870588, 1.0 ],
									"presentation_rect" : [ 15.0, 15.0, 50.0, 20.0 ],
									"numinlets" : 1,
									"fontname" : "Arial"
								}

							}
, 							{
								"box" : 								{
									"maxclass" : "newobj",
									"text" : "*~",
									"numoutlets" : 1,
									"patching_rect" : [ 130.600006, 280.0, 32.5, 20.0 ],
									"id" : "obj-41",
									"outlettype" : [ "signal" ],
									"fontsize" : 11.595187,
									"numinlets" : 2,
									"fontname" : "Arial"
								}

							}
, 							{
								"box" : 								{
									"maxclass" : "flonum",
									"numoutlets" : 2,
									"patching_rect" : [ 186.0, 221.0, 50.0, 20.0 ],
									"id" : "obj-42",
									"triscale" : 0.9,
									"outlettype" : [ "float", "bang" ],
									"fontsize" : 11.595187,
									"htextcolor" : [ 0.870588, 0.870588, 0.870588, 1.0 ],
									"presentation_rect" : [ 15.0, 15.0, 50.0, 20.0 ],
									"numinlets" : 1,
									"fontname" : "Arial"
								}

							}
, 							{
								"box" : 								{
									"maxclass" : "newobj",
									"text" : "cycle~",
									"numoutlets" : 1,
									"patching_rect" : [ 131.0, 249.0, 44.0, 20.0 ],
									"id" : "obj-43",
									"outlettype" : [ "signal" ],
									"fontsize" : 11.595187,
									"numinlets" : 2,
									"fontname" : "Arial"
								}

							}
, 							{
								"box" : 								{
									"maxclass" : "newobj",
									"text" : "sig~",
									"numoutlets" : 1,
									"patching_rect" : [ 186.200012, 249.0, 32.0, 20.0 ],
									"id" : "obj-44",
									"outlettype" : [ "signal" ],
									"fontsize" : 11.595187,
									"numinlets" : 1,
									"fontname" : "Arial"
								}

							}
, 							{
								"box" : 								{
									"maxclass" : "newobj",
									"text" : "teeth~ 100.",
									"numoutlets" : 1,
									"patching_rect" : [ 76.0, 322.0, 292.0, 20.0 ],
									"id" : "obj-46",
									"outlettype" : [ "signal" ],
									"fontsize" : 11.595187,
									"numinlets" : 6,
									"fontname" : "Arial"
								}

							}
, 							{
								"box" : 								{
									"maxclass" : "comment",
									"text" : "rate",
									"numoutlets" : 0,
									"patching_rect" : [ 140.0, 203.0, 30.0, 20.0 ],
									"id" : "obj-49",
									"fontsize" : 11.595187,
									"presentation_rect" : [ 15.0, 15.0, 50.0, 20.0 ],
									"numinlets" : 1,
									"fontname" : "Arial"
								}

							}
, 							{
								"box" : 								{
									"maxclass" : "comment",
									"text" : "gain",
									"numoutlets" : 0,
									"patching_rect" : [ 245.0, 203.0, 32.0, 20.0 ],
									"id" : "obj-50",
									"fontsize" : 11.595187,
									"presentation_rect" : [ 15.0, 15.0, 50.0, 20.0 ],
									"numinlets" : 1,
									"fontname" : "Arial"
								}

							}
, 							{
								"box" : 								{
									"maxclass" : "comment",
									"text" : "ff",
									"numoutlets" : 0,
									"patching_rect" : [ 299.0, 203.0, 19.0, 20.0 ],
									"id" : "obj-51",
									"fontsize" : 11.595187,
									"presentation_rect" : [ 15.0, 15.0, 50.0, 20.0 ],
									"numinlets" : 1,
									"fontname" : "Arial"
								}

							}
, 							{
								"box" : 								{
									"maxclass" : "comment",
									"text" : "fb",
									"numoutlets" : 0,
									"patching_rect" : [ 351.0, 203.0, 20.0, 20.0 ],
									"id" : "obj-52",
									"fontsize" : 11.595187,
									"presentation_rect" : [ 15.0, 15.0, 50.0, 20.0 ],
									"numinlets" : 1,
									"fontname" : "Arial"
								}

							}
, 							{
								"box" : 								{
									"maxclass" : "comment",
									"text" : "\"vibrato\"",
									"numoutlets" : 0,
									"patching_rect" : [ 327.0, 60.0, 54.0, 20.0 ],
									"id" : "obj-54",
									"fontsize" : 11.595187,
									"numinlets" : 1,
									"fontname" : "Arial"
								}

							}
, 							{
								"box" : 								{
									"maxclass" : "comment",
									"text" : "\"white chorus\"",
									"numoutlets" : 0,
									"patching_rect" : [ 297.0, 120.0, 84.0, 20.0 ],
									"id" : "obj-55",
									"fontsize" : 11.595187,
									"numinlets" : 1,
									"fontname" : "Arial"
								}

							}
, 							{
								"box" : 								{
									"maxclass" : "outlet",
									"numoutlets" : 0,
									"patching_rect" : [ 76.0, 356.0, 25.0, 25.0 ],
									"id" : "obj-2",
									"numinlets" : 1,
									"comment" : ""
								}

							}
, 							{
								"box" : 								{
									"maxclass" : "inlet",
									"numoutlets" : 1,
									"patching_rect" : [ 54.0, 83.0, 25.0, 25.0 ],
									"id" : "obj-1",
									"outlettype" : [ "signal" ],
									"numinlets" : 0,
									"comment" : ""
								}

							}
 ],
						"lines" : [ 							{
								"patchline" : 								{
									"source" : [ "obj-5", 0 ],
									"destination" : [ "obj-31", 0 ],
									"hidden" : 0,
									"midpoints" : [ 92.5, 160.0, 361.5, 160.0 ]
								}

							}
, 							{
								"patchline" : 								{
									"source" : [ "obj-4", 0 ],
									"destination" : [ "obj-5", 0 ],
									"hidden" : 0,
									"midpoints" : [  ]
								}

							}
, 							{
								"patchline" : 								{
									"source" : [ "obj-3", 0 ],
									"destination" : [ "obj-22", 0 ],
									"hidden" : 1,
									"midpoints" : [  ]
								}

							}
, 							{
								"patchline" : 								{
									"source" : [ "obj-40", 0 ],
									"destination" : [ "obj-41", 1 ],
									"hidden" : 0,
									"midpoints" : [ 85.5, 273.0, 153.600006, 273.0 ]
								}

							}
, 							{
								"patchline" : 								{
									"source" : [ "obj-46", 0 ],
									"destination" : [ "obj-2", 0 ],
									"hidden" : 0,
									"midpoints" : [  ]
								}

							}
, 							{
								"patchline" : 								{
									"source" : [ "obj-1", 0 ],
									"destination" : [ "obj-46", 0 ],
									"hidden" : 0,
									"midpoints" : [ 63.5, 284.0, 85.5, 284.0 ]
								}

							}
, 							{
								"patchline" : 								{
									"source" : [ "obj-34", 0 ],
									"destination" : [ "obj-46", 5 ],
									"hidden" : 0,
									"midpoints" : [  ]
								}

							}
, 							{
								"patchline" : 								{
									"source" : [ "obj-31", 0 ],
									"destination" : [ "obj-34", 0 ],
									"hidden" : 1,
									"midpoints" : [  ]
								}

							}
, 							{
								"patchline" : 								{
									"source" : [ "obj-19", 0 ],
									"destination" : [ "obj-31", 0 ],
									"hidden" : 1,
									"midpoints" : [  ]
								}

							}
, 							{
								"patchline" : 								{
									"source" : [ "obj-20", 0 ],
									"destination" : [ "obj-31", 0 ],
									"hidden" : 1,
									"midpoints" : [  ]
								}

							}
, 							{
								"patchline" : 								{
									"source" : [ "obj-21", 0 ],
									"destination" : [ "obj-31", 0 ],
									"hidden" : 1,
									"midpoints" : [  ]
								}

							}
, 							{
								"patchline" : 								{
									"source" : [ "obj-22", 0 ],
									"destination" : [ "obj-31", 0 ],
									"hidden" : 1,
									"midpoints" : [  ]
								}

							}
, 							{
								"patchline" : 								{
									"source" : [ "obj-23", 0 ],
									"destination" : [ "obj-31", 0 ],
									"hidden" : 1,
									"midpoints" : [  ]
								}

							}
, 							{
								"patchline" : 								{
									"source" : [ "obj-35", 0 ],
									"destination" : [ "obj-46", 4 ],
									"hidden" : 0,
									"midpoints" : [  ]
								}

							}
, 							{
								"patchline" : 								{
									"source" : [ "obj-31", 0 ],
									"destination" : [ "obj-35", 0 ],
									"hidden" : 1,
									"midpoints" : [  ]
								}

							}
, 							{
								"patchline" : 								{
									"source" : [ "obj-36", 0 ],
									"destination" : [ "obj-46", 3 ],
									"hidden" : 0,
									"midpoints" : [  ]
								}

							}
, 							{
								"patchline" : 								{
									"source" : [ "obj-31", 0 ],
									"destination" : [ "obj-36", 0 ],
									"hidden" : 1,
									"midpoints" : [  ]
								}

							}
, 							{
								"patchline" : 								{
									"source" : [ "obj-44", 0 ],
									"destination" : [ "obj-46", 2 ],
									"hidden" : 0,
									"color" : [ 1.0, 0.741176, 0.611765, 1.0 ],
									"midpoints" : [  ]
								}

							}
, 							{
								"patchline" : 								{
									"source" : [ "obj-42", 0 ],
									"destination" : [ "obj-44", 0 ],
									"hidden" : 0,
									"midpoints" : [  ]
								}

							}
, 							{
								"patchline" : 								{
									"source" : [ "obj-31", 0 ],
									"destination" : [ "obj-42", 0 ],
									"hidden" : 1,
									"midpoints" : [  ]
								}

							}
, 							{
								"patchline" : 								{
									"source" : [ "obj-41", 0 ],
									"destination" : [ "obj-46", 1 ],
									"hidden" : 0,
									"midpoints" : [  ]
								}

							}
, 							{
								"patchline" : 								{
									"source" : [ "obj-44", 0 ],
									"destination" : [ "obj-46", 1 ],
									"hidden" : 0,
									"color" : [ 1.0, 0.741176, 0.611765, 1.0 ],
									"midpoints" : [  ]
								}

							}
, 							{
								"patchline" : 								{
									"source" : [ "obj-43", 0 ],
									"destination" : [ "obj-41", 0 ],
									"hidden" : 0,
									"midpoints" : [  ]
								}

							}
, 							{
								"patchline" : 								{
									"source" : [ "obj-39", 0 ],
									"destination" : [ "obj-43", 0 ],
									"hidden" : 0,
									"midpoints" : [  ]
								}

							}
, 							{
								"patchline" : 								{
									"source" : [ "obj-31", 0 ],
									"destination" : [ "obj-39", 0 ],
									"hidden" : 1,
									"midpoints" : [  ]
								}

							}
, 							{
								"patchline" : 								{
									"source" : [ "obj-31", 0 ],
									"destination" : [ "obj-40", 0 ],
									"hidden" : 1,
									"midpoints" : [  ]
								}

							}
 ]
					}
,
					"saved_object_attributes" : 					{
						"default_fontname" : "Arial",
						"default_fontsize" : 12.0,
						"fontface" : 0,
						"fontsize" : 12.0,
						"globalpatchername" : "",
						"default_fontface" : 0,
						"fontname" : "Arial"
					}

				}

			}
 ],
		"lines" : [ 			{
				"patchline" : 				{
					"source" : [ "obj-49", 0 ],
					"destination" : [ "obj-1", 0 ],
					"hidden" : 0,
					"midpoints" : [  ]
				}

			}
, 			{
				"patchline" : 				{
					"source" : [ "obj-7", 0 ],
					"destination" : [ "obj-1", 0 ],
					"hidden" : 0,
					"midpoints" : [  ]
				}

			}
, 			{
				"patchline" : 				{
					"source" : [ "obj-23", 0 ],
					"destination" : [ "obj-25", 0 ],
					"hidden" : 0,
					"midpoints" : [ 144.5, 237.0, 292.5, 237.0 ]
				}

			}
, 			{
				"patchline" : 				{
					"source" : [ "obj-19", 0 ],
					"destination" : [ "obj-25", 0 ],
					"hidden" : 0,
					"midpoints" : [ 199.5, 237.0, 292.5, 237.0 ]
				}

			}
, 			{
				"patchline" : 				{
					"source" : [ "obj-19", 1 ],
					"destination" : [ "obj-46", 1 ],
					"hidden" : 0,
					"midpoints" : [ 213.0, 332.0, 384.5, 332.0 ]
				}

			}
, 			{
				"patchline" : 				{
					"source" : [ "obj-16", 0 ],
					"destination" : [ "obj-25", 0 ],
					"hidden" : 0,
					"midpoints" : [ 252.5, 237.0, 292.5, 237.0 ]
				}

			}
, 			{
				"patchline" : 				{
					"source" : [ "obj-25", 0 ],
					"destination" : [ "obj-47", 0 ],
					"hidden" : 0,
					"midpoints" : [  ]
				}

			}
, 			{
				"patchline" : 				{
					"source" : [ "obj-16", 1 ],
					"destination" : [ "obj-4", 1 ],
					"hidden" : 0,
					"midpoints" : [ 266.0, 298.0, 402.5, 298.0 ]
				}

			}
, 			{
				"patchline" : 				{
					"source" : [ "obj-1", 0 ],
					"destination" : [ "obj-23", 0 ],
					"hidden" : 0,
					"midpoints" : [ 159.5, 129.0, 144.5, 129.0 ]
				}

			}
, 			{
				"patchline" : 				{
					"source" : [ "obj-21", 0 ],
					"destination" : [ "obj-16", 0 ],
					"hidden" : 0,
					"midpoints" : [  ]
				}

			}
, 			{
				"patchline" : 				{
					"source" : [ "obj-12", 0 ],
					"destination" : [ "obj-21", 0 ],
					"hidden" : 0,
					"midpoints" : [  ]
				}

			}
, 			{
				"patchline" : 				{
					"source" : [ "obj-22", 0 ],
					"destination" : [ "obj-19", 0 ],
					"hidden" : 0,
					"midpoints" : [  ]
				}

			}
, 			{
				"patchline" : 				{
					"source" : [ "obj-20", 0 ],
					"destination" : [ "obj-22", 0 ],
					"hidden" : 0,
					"midpoints" : [  ]
				}

			}
, 			{
				"patchline" : 				{
					"source" : [ "obj-1", 0 ],
					"destination" : [ "obj-20", 0 ],
					"hidden" : 0,
					"midpoints" : [ 159.5, 129.0, 199.5, 129.0 ]
				}

			}
, 			{
				"patchline" : 				{
					"source" : [ "obj-1", 0 ],
					"destination" : [ "obj-12", 0 ],
					"hidden" : 0,
					"midpoints" : [ 159.5, 129.0, 252.5, 129.0 ]
				}

			}
, 			{
				"patchline" : 				{
					"source" : [ "obj-4", 0 ],
					"destination" : [ "obj-6", 0 ],
					"hidden" : 0,
					"midpoints" : [ 330.5, 329.0, 289.5, 329.0 ]
				}

			}
, 			{
				"patchline" : 				{
					"source" : [ "obj-44", 0 ],
					"destination" : [ "obj-6", 0 ],
					"hidden" : 0,
					"midpoints" : [ 303.5, 393.0, 289.5, 393.0 ]
				}

			}
, 			{
				"patchline" : 				{
					"source" : [ "obj-46", 0 ],
					"destination" : [ "obj-6", 0 ],
					"hidden" : 0,
					"midpoints" : [ 316.5, 361.0, 289.5, 361.0 ]
				}

			}
, 			{
				"patchline" : 				{
					"source" : [ "obj-47", 0 ],
					"destination" : [ "obj-6", 0 ],
					"hidden" : 0,
					"midpoints" : [  ]
				}

			}
, 			{
				"patchline" : 				{
					"source" : [ "obj-5", 0 ],
					"destination" : [ "obj-47", 1 ],
					"hidden" : 0,
					"midpoints" : [  ]
				}

			}
, 			{
				"patchline" : 				{
					"source" : [ "obj-47", 3 ],
					"destination" : [ "obj-4", 0 ],
					"hidden" : 0,
					"midpoints" : [  ]
				}

			}
, 			{
				"patchline" : 				{
					"source" : [ "obj-47", 1 ],
					"destination" : [ "obj-44", 0 ],
					"hidden" : 0,
					"midpoints" : [  ]
				}

			}
, 			{
				"patchline" : 				{
					"source" : [ "obj-47", 2 ],
					"destination" : [ "obj-46", 0 ],
					"hidden" : 0,
					"midpoints" : [  ]
				}

			}
 ]
	}

}
